<?xml version="1.0" ?><svg enable-background="new 0 0 512 512" id="Layer_1" version="1.1" viewBox="0 0 512 512" xml:space="preserve" xmlns="http://www.w3.org/2000/svg" xmlns:xlink="http://www.w3.org/1999/xlink"><g><g><linearGradient gradientUnits="userSpaceOnUse" id="SVGID_1_" x1="-0.0000027" x2="512" y1="256" y2="256"><stop offset="0" style="stop-color:#8DC63F"/><stop offset="1" style="stop-color:#76B83F"/></linearGradient><circle cx="256" cy="256" fill="url(#SVGID_1_)" r="256"/><linearGradient gradientUnits="userSpaceOnUse" id="SVGID_2_" x1="42.6666641" x2="469.3333435" y1="256.0005188" y2="256.0005188"><stop offset="0" style="stop-color:#76B83F"/><stop offset="1" style="stop-color:#8DC63F"/></linearGradient><path d="M256,469.3338623c-117.6315002,0-213.3333435-95.7018738-213.3333435-213.3333435    c0-117.6309204,95.7018356-213.333313,213.3333435-213.333313c117.6357117,0,213.3333435,95.7024002,213.3333435,213.333313    C469.3333435,373.6319885,373.6357117,469.3338623,256,469.3338623z" fill="url(#SVGID_2_)"/></g><path d="M214.8746643,193.1248016L144,264l70.8746643,70.8752136H384V264v-70.8751984H214.8746643z    M328.1695557,299.2063904l-7.0703735,7.0698853l-35.2058411-35.207489l-35.2064362,35.207489l-7.0704041-7.0698853   l35.2064056-35.2074585l-35.2064056-35.2074585l7.0704041-7.0704041l35.2064362,35.2074585l35.2058411-35.2074585   l7.0703735,7.0704041l-35.2063904,35.2074585L328.1695557,299.2063904z" opacity="0.3"/><path d="M206.8746643,185.1248016L136,256l70.8746643,70.8752136H376V256v-70.8751984H206.8746643z    M320.1695557,291.2063904l-7.0703735,7.0698853l-35.2058411-35.207489l-35.2064362,35.207489l-7.0704041-7.0698853   l35.2064056-35.2074585l-35.2064056-35.2074585l7.0704041-7.0704041l35.2064362,35.2074585l35.2058411-35.2074585   l7.0703735,7.0704041l-35.2063904,35.2074585L320.1695557,291.2063904z" fill="#FFFFFF"/></g></svg>